solid Untitled-5f4cc5c4
facet normal 0.0 0.0 1.0
  outer loop
    vertex 1682.0 2382.0 600.0
    vertex 682.0000000000001 2482.0 600.0
    vertex 682.0000000000001 2382.0 600.0
  endloop
endfacet
facet normal 0.0 0.0 1.0
  outer loop
    vertex 682.0000000000001 2482.0 600.0
    vertex 1682.0 2382.0 600.0
    vertex 1682.0 2482.0 600.0
  endloop
endfacet
facet normal -0.0 -1.0 -0.0
  outer loop
    vertex 1750.0000000000002 -50.0 150.0
    vertex -50.00000000000001 -50.0 0.0
    vertex 1750.0000000000002 -50.0 0.0
  endloop
endfacet
facet normal -0.0 -1.0 -0.0
  outer loop
    vertex -50.00000000000001 -50.0 0.0
    vertex 1750.0000000000002 -50.0 150.0
    vertex -50.00000000000001 -50.0 150.0
  endloop
endfacet
facet normal -0.0 -0.0 1.0
  outer loop
    vertex 1067.0 0.0 100.0
    vertex 893.9999999999992 310.0 100.0
    vertex 893.9999999999992 0.0 100.0
  endloop
endfacet
facet normal -0.0 -0.0 1.0
  outer loop
    vertex 1470.0 0.0 100.0
    vertex 1296.999999999999 310.0 100.0
    vertex 1296.999999999999 0.0 100.0
  endloop
endfacet
facet normal -0.0 -0.0 1.0
  outer loop
    vertex 893.9999999999992 310.0 100.0
    vertex 663.9999999999999 892.0 100.0
    vertex 663.9999999999999 310.0 100.0
  endloop
endfacet
facet normal -0.0 -0.0 1.0
  outer loop
    vertex 663.9999999999999 892.0 100.0
    vertex 893.9999999999992 310.0 100.0
    vertex 1700.0 891.9999999999997 100.0
  endloop
endfacet
facet normal -0.0 -0.0 1.0
  outer loop
    vertex 1700.0 891.9999999999997 100.0
    vertex 893.9999999999992 310.0 100.0
    vertex 1067.0 310.0 100.0
  endloop
endfacet
facet normal -0.0 -0.0 1.0
  outer loop
    vertex 1067.0 310.0 100.0
    vertex 893.9999999999992 310.0 100.0
    vertex 1067.0 0.0 100.0
  endloop
endfacet
facet normal -0.0 -0.0 1.0
  outer loop
    vertex 1700.0 891.9999999999997 100.0
    vertex 1067.0 310.0 100.0
    vertex 1296.999999999999 310.0 100.0
  endloop
endfacet
facet normal -0.0 -0.0 1.0
  outer loop
    vertex 1700.0 891.9999999999997 100.0
    vertex 1296.999999999999 310.0 100.0
    vertex 1470.0 310.0 100.0
  endloop
endfacet
facet normal -0.0 -0.0 1.0
  outer loop
    vertex 1470.0 310.0 100.0
    vertex 1296.999999999999 310.0 100.0
    vertex 1470.0 0.0 100.0
  endloop
endfacet
facet normal -0.0 -0.0 1.0
  outer loop
    vertex 1700.0 891.9999999999997 100.0
    vertex 1470.0 310.0 100.0
    vertex 1700.0 310.0 100.0
  endloop
endfacet
facet normal -0.0 -0.0 1.0
  outer loop
    vertex 1700.0 1027.9999999999998 100.0
    vertex 663.9999999999999 1628.0 100.0
    vertex 663.9999999999999 1027.9999999999998 100.0
  endloop
endfacet
facet normal -0.0 -0.0 1.0
  outer loop
    vertex 663.9999999999999 1628.0 100.0
    vertex 1700.0 1027.9999999999998 100.0
    vertex 1700.0 1627.9999999999998 100.0
  endloop
endfacet
facet normal -0.0 -0.0 1.0
  outer loop
    vertex 1700.0 1763.9999999999998 100.0
    vertex 663.9999999999999 2364.0 100.0
    vertex 663.9999999999999 1763.9999999999998 100.0
  endloop
endfacet
facet normal -0.0 -0.0 1.0
  outer loop
    vertex 663.9999999999999 2364.0 100.0
    vertex 1700.0 1763.9999999999998 100.0
    vertex 1700.0 2364.0 100.0
  endloop
endfacet
facet normal -0.0 -0.0 1.0
  outer loop
    vertex 663.9999999999999 0.0 100.0
    vertex 0.0 2500.0 100.0
    vertex 0.0 0.0 100.0
  endloop
endfacet
facet normal -0.0 -0.0 1.0
  outer loop
    vertex 0.0 2500.0 100.0
    vertex 663.9999999999999 0.0 100.0
    vertex 663.9999999999999 2500.0 100.0
  endloop
endfacet
facet normal -0.0 -0.0 1.0
  outer loop
    vertex 663.9999999999999 2500.0 100.0
    vertex 663.9999999999999 0.0 100.0
    vertex 663.9999999999999 310.0 100.0
  endloop
endfacet
facet normal -0.0 -0.0 1.0
  outer loop
    vertex 663.9999999999999 2500.0 100.0
    vertex 663.9999999999999 310.0 100.0
    vertex 663.9999999999999 892.0 100.0
  endloop
endfacet
facet normal -0.0 -0.0 1.0
  outer loop
    vertex 663.9999999999999 2500.0 100.0
    vertex 663.9999999999999 892.0 100.0
    vertex 663.9999999999999 1027.9999999999998 100.0
  endloop
endfacet
facet normal -0.0 -0.0 1.0
  outer loop
    vertex 663.9999999999999 2500.0 100.0
    vertex 663.9999999999999 1027.9999999999998 100.0
    vertex 663.9999999999999 1628.0 100.0
  endloop
endfacet
facet normal -0.0 -0.0 1.0
  outer loop
    vertex 663.9999999999999 2500.0 100.0
    vertex 663.9999999999999 1628.0 100.0
    vertex 663.9999999999999 1763.9999999999998 100.0
  endloop
endfacet
facet normal -0.0 -0.0 1.0
  outer loop
    vertex 663.9999999999999 2500.0 100.0
    vertex 663.9999999999999 1763.9999999999998 100.0
    vertex 663.9999999999999 2364.0 100.0
  endloop
endfacet
facet normal 1.0 -0.0 -0.0
  outer loop
    vertex 0.0 2500.0 100.0
    vertex 0.0 0.0 150.0
    vertex 0.0 0.0 100.0
  endloop
endfacet
facet normal 1.0 -0.0 -0.0
  outer loop
    vertex 0.0 0.0 150.0
    vertex 0.0 2500.0 100.0
    vertex 0.0 2500.0 150.0
  endloop
endfacet
facet normal 0.0 -1.0 0.0
  outer loop
    vertex 663.9999999999999 2500.0 150.0
    vertex 0.0 2500.0 100.0
    vertex 663.9999999999999 2500.0 100.0
  endloop
endfacet
facet normal 0.0 -1.0 0.0
  outer loop
    vertex 0.0 2500.0 100.0
    vertex 663.9999999999999 2500.0 150.0
    vertex 0.0 2500.0 150.0
  endloop
endfacet
facet normal -1.0 0.0 0.0
  outer loop
    vertex -50.00000000000001 2549.9999999999995 150.0
    vertex -50.00000000000001 -50.0 0.0
    vertex -50.00000000000001 -50.0 150.0
  endloop
endfacet
facet normal -1.0 0.0 0.0
  outer loop
    vertex -50.00000000000001 -50.0 0.0
    vertex -50.00000000000001 2549.9999999999995 150.0
    vertex -50.00000000000001 2549.9999999999995 0.0
  endloop
endfacet
facet normal -1.0 0.0 0.0
  outer loop
    vertex 1700.0 2364.0 150.0
    vertex 1700.0 1763.9999999999998 100.0
    vertex 1700.0 1763.9999999999998 150.0
  endloop
endfacet
facet normal -1.0 0.0 0.0
  outer loop
    vertex 1700.0 1763.9999999999998 100.0
    vertex 1700.0 2364.0 150.0
    vertex 1700.0 2364.0 100.0
  endloop
endfacet
facet normal -0.0 1.0 0.0
  outer loop
    vertex -50.00000000000001 2549.9999999999995 150.0
    vertex 1750.0000000000002 2549.9999999999995 0.0
    vertex -50.00000000000001 2549.9999999999995 0.0
  endloop
endfacet
facet normal -0.0 1.0 0.0
  outer loop
    vertex 1750.0000000000002 2549.9999999999995 0.0
    vertex -50.00000000000001 2549.9999999999995 150.0
    vertex 1750.0000000000002 2549.9999999999995 150.0
  endloop
endfacet
facet normal 1.0 0.0 0.0
  outer loop
    vertex 1750.0000000000002 2549.9999999999995 0.0
    vertex 1750.0000000000002 -50.0 150.0
    vertex 1750.0000000000002 -50.0 0.0
  endloop
endfacet
facet normal 1.0 0.0 0.0
  outer loop
    vertex 1750.0000000000002 -50.0 150.0
    vertex 1750.0000000000002 2549.9999999999995 0.0
    vertex 1750.0000000000002 2549.9999999999995 150.0
  endloop
endfacet
facet normal -0.0 -0.0 1.0
  outer loop
    vertex -50.00000000000001 -50.0 150.0
    vertex 0.0 0.0 150.0
    vertex -50.00000000000001 2549.9999999999995 150.0
  endloop
endfacet
facet normal -0.0 -0.0 1.0
  outer loop
    vertex 0.0 0.0 150.0
    vertex -50.00000000000001 -50.0 150.0
    vertex 1750.0000000000002 -50.0 150.0
  endloop
endfacet
facet normal -0.0 -0.0 1.0
  outer loop
    vertex 0.0 0.0 150.0
    vertex 1750.0000000000002 -50.0 150.0
    vertex 663.9999999999999 0.0 150.0
  endloop
endfacet
facet normal -0.0 -0.0 1.0
  outer loop
    vertex 663.9999999999999 0.0 150.0
    vertex 1750.0000000000002 -50.0 150.0
    vertex 893.9999999999992 0.0 150.0
  endloop
endfacet
facet normal -0.0 -0.0 1.0
  outer loop
    vertex 893.9999999999992 0.0 150.0
    vertex 1750.0000000000002 -50.0 150.0
    vertex 1067.0 0.0 150.0
  endloop
endfacet
facet normal -0.0 -0.0 1.0
  outer loop
    vertex 1067.0 0.0 150.0
    vertex 1750.0000000000002 -50.0 150.0
    vertex 1296.999999999999 0.0 150.0
  endloop
endfacet
facet normal -0.0 -0.0 1.0
  outer loop
    vertex 1296.999999999999 0.0 150.0
    vertex 1750.0000000000002 -50.0 150.0
    vertex 1470.0 0.0 150.0
  endloop
endfacet
facet normal -0.0 -0.0 1.0
  outer loop
    vertex 1470.0 0.0 150.0
    vertex 1750.0000000000002 -50.0 150.0
    vertex 1700.0 0.0 150.0
  endloop
endfacet
facet normal -0.0 -0.0 1.0
  outer loop
    vertex 1700.0 0.0 150.0
    vertex 1750.0000000000002 -50.0 150.0
    vertex 1700.0 310.0 150.0
  endloop
endfacet
facet normal -0.0 -0.0 1.0
  outer loop
    vertex 1700.0 310.0 150.0
    vertex 1750.0000000000002 -50.0 150.0
    vertex 1700.0 891.9999999999997 150.0
  endloop
endfacet
facet normal -0.0 -0.0 1.0
  outer loop
    vertex 1700.0 891.9999999999997 150.0
    vertex 1750.0000000000002 -50.0 150.0
    vertex 1700.0 1027.9999999999998 150.0
  endloop
endfacet
facet normal -0.0 -0.0 1.0
  outer loop
    vertex 1700.0 1027.9999999999998 150.0
    vertex 1750.0000000000002 -50.0 150.0
    vertex 1700.0 1627.9999999999998 150.0
  endloop
endfacet
facet normal -0.0 -0.0 1.0
  outer loop
    vertex 1700.0 1627.9999999999998 150.0
    vertex 1750.0000000000002 -50.0 150.0
    vertex 1700.0 1763.9999999999998 150.0
  endloop
endfacet
facet normal -0.0 -0.0 1.0
  outer loop
    vertex 1700.0 1763.9999999999998 150.0
    vertex 1750.0000000000002 -50.0 150.0
    vertex 1700.0 2364.0 150.0
  endloop
endfacet
facet normal -0.0 -0.0 1.0
  outer loop
    vertex 1700.0 2364.0 150.0
    vertex 1750.0000000000002 -50.0 150.0
    vertex 1700.0 2500.0 150.0
  endloop
endfacet
facet normal -0.0 -0.0 1.0
  outer loop
    vertex -50.00000000000001 2549.9999999999995 150.0
    vertex 0.0 2500.0 150.0
    vertex 1750.0000000000002 2549.9999999999995 150.0
  endloop
endfacet
facet normal -0.0 -0.0 1.0
  outer loop
    vertex 0.0 2500.0 150.0
    vertex -50.00000000000001 2549.9999999999995 150.0
    vertex 0.0 0.0 150.0
  endloop
endfacet
facet normal -0.0 -0.0 1.0
  outer loop
    vertex 1750.0000000000002 2549.9999999999995 150.0
    vertex 0.0 2500.0 150.0
    vertex 663.9999999999999 2500.0 150.0
  endloop
endfacet
facet normal -0.0 -0.0 1.0
  outer loop
    vertex 1750.0000000000002 2549.9999999999995 150.0
    vertex 663.9999999999999 2500.0 150.0
    vertex 1700.0 2500.0 150.0
  endloop
endfacet
facet normal -0.0 -0.0 1.0
  outer loop
    vertex 1750.0000000000002 2549.9999999999995 150.0
    vertex 1700.0 2500.0 150.0
    vertex 1750.0000000000002 -50.0 150.0
  endloop
endfacet
facet normal 0.0 0.0 -1.0
  outer loop
    vertex 1750.0000000000002 2549.9999999999995 0.0
    vertex -50.00000000000001 -50.0 0.0
    vertex -50.00000000000001 2549.9999999999995 0.0
  endloop
endfacet
facet normal 0.0 0.0 -1.0
  outer loop
    vertex -50.00000000000001 -50.0 0.0
    vertex 1750.0000000000002 2549.9999999999995 0.0
    vertex 1750.0000000000002 -50.0 0.0
  endloop
endfacet
facet normal -0.0 1.0 -0.0
  outer loop
    vertex 0.0 0.0 150.0
    vertex 663.9999999999999 0.0 100.0
    vertex 0.0 0.0 100.0
  endloop
endfacet
facet normal -0.0 1.0 -0.0
  outer loop
    vertex 663.9999999999999 0.0 100.0
    vertex 0.0 0.0 150.0
    vertex 663.9999999999999 0.0 150.0
  endloop
endfacet
facet normal -1.0 0.0 0.0
  outer loop
    vertex 663.9999999999999 310.0 250.0
    vertex 663.9999999999999 0.0 150.0
    vertex 663.9999999999999 0.0 250.0
  endloop
endfacet
facet normal -1.0 0.0 0.0
  outer loop
    vertex 663.9999999999999 0.0 150.0
    vertex 663.9999999999999 310.0 250.0
    vertex 663.9999999999999 0.0 100.0
  endloop
endfacet
facet normal -1.0 0.0 0.0
  outer loop
    vertex 663.9999999999999 0.0 100.0
    vertex 663.9999999999999 310.0 250.0
    vertex 663.9999999999999 310.0 100.0
  endloop
endfacet
facet normal 0.0 -1.0 0.0
  outer loop
    vertex 853.9999999999992 300.0000000000003 250.0
    vertex 703.9999999999998 300.0000000000003 160.0
    vertex 853.9999999999992 300.0000000000003 160.0
  endloop
endfacet
facet normal 0.0 -1.0 0.0
  outer loop
    vertex 703.9999999999998 300.0000000000003 160.0
    vertex 853.9999999999992 300.0000000000003 250.0
    vertex 703.9999999999998 300.0000000000003 250.0
  endloop
endfacet
facet normal -0.0 1.0 -0.0
  outer loop
    vertex 663.9999999999999 310.0 250.0
    vertex 893.9999999999992 310.0 100.0
    vertex 663.9999999999999 310.0 100.0
  endloop
endfacet
facet normal -0.0 1.0 -0.0
  outer loop
    vertex 893.9999999999992 310.0 100.0
    vertex 663.9999999999999 310.0 250.0
    vertex 893.9999999999992 310.0 250.0
  endloop
endfacet
facet normal 0.0 -1.0 0.0
  outer loop
    vertex 703.9999999999998 270.0000000000001 250.0
    vertex 673.9999999999999 270.0000000000001 160.0
    vertex 703.9999999999998 270.0000000000001 160.0
  endloop
endfacet
facet normal 0.0 -1.0 0.0
  outer loop
    vertex 673.9999999999999 270.0000000000001 160.0
    vertex 703.9999999999998 270.0000000000001 250.0
    vertex 673.9999999999999 270.0000000000001 250.0
  endloop
endfacet
facet normal 1.0 -0.0 -0.0
  outer loop
    vertex 673.9999999999999 270.0000000000001 160.0
    vertex 673.9999999999999 40.00000000000031 250.0
    vertex 673.9999999999999 40.00000000000031 160.0
  endloop
endfacet
facet normal 1.0 -0.0 -0.0
  outer loop
    vertex 673.9999999999999 40.00000000000031 250.0
    vertex 673.9999999999999 270.0000000000001 160.0
    vertex 673.9999999999999 270.0000000000001 250.0
  endloop
endfacet
facet normal 1.0 -0.0 -0.0
  outer loop
    vertex 893.9999999999992 310.0 100.0
    vertex 893.9999999999992 0.0 150.0
    vertex 893.9999999999992 0.0 100.0
  endloop
endfacet
facet normal 1.0 -0.0 -0.0
  outer loop
    vertex 893.9999999999992 0.0 150.0
    vertex 893.9999999999992 310.0 100.0
    vertex 893.9999999999992 0.0 250.0
  endloop
endfacet
facet normal 1.0 -0.0 -0.0
  outer loop
    vertex 893.9999999999992 0.0 250.0
    vertex 893.9999999999992 310.0 100.0
    vertex 893.9999999999992 310.0 250.0
  endloop
endfacet
facet normal -0.0 -0.0 1.0
  outer loop
    vertex 883.9999999999993 270.0000000000001 250.0
    vertex 853.9999999999992 300.0000000000003 250.0
    vertex 853.9999999999992 270.0000000000001 250.0
  endloop
endfacet
facet normal -0.0 -0.0 1.0
  outer loop
    vertex 663.9999999999999 0.0 250.0
    vertex 673.9999999999999 40.00000000000031 250.0
    vertex 663.9999999999999 310.0 250.0
  endloop
endfacet
facet normal -0.0 -0.0 1.0
  outer loop
    vertex 673.9999999999999 40.00000000000031 250.0
    vertex 663.9999999999999 0.0 250.0
    vertex 703.9999999999998 10.000000000000107 250.0
  endloop
endfacet
facet normal -0.0 -0.0 1.0
  outer loop
    vertex 703.9999999999998 10.000000000000107 250.0
    vertex 663.9999999999999 0.0 250.0
    vertex 893.9999999999992 0.0 250.0
  endloop
endfacet
facet normal -0.0 -0.0 1.0
  outer loop
    vertex 703.9999999999998 10.000000000000107 250.0
    vertex 893.9999999999992 0.0 250.0
    vertex 853.9999999999992 10.000000000000107 250.0
  endloop
endfacet
facet normal -0.0 -0.0 1.0
  outer loop
    vertex 853.9999999999992 10.000000000000107 250.0
    vertex 893.9999999999992 0.0 250.0
    vertex 853.9999999999992 40.00000000000031 250.0
  endloop
endfacet
facet normal -0.0 -0.0 1.0
  outer loop
    vertex 853.9999999999992 40.00000000000031 250.0
    vertex 893.9999999999992 0.0 250.0
    vertex 883.9999999999993 40.00000000000031 250.0
  endloop
endfacet
facet normal -0.0 -0.0 1.0
  outer loop
    vertex 883.9999999999993 40.00000000000031 250.0
    vertex 893.9999999999992 0.0 250.0
    vertex 883.9999999999993 270.0000000000001 250.0
  endloop
endfacet
facet normal -0.0 -0.0 1.0
  outer loop
    vertex 663.9999999999999 310.0 250.0
    vertex 703.9999999999998 300.0000000000003 250.0
    vertex 893.9999999999992 310.0 250.0
  endloop
endfacet
facet normal -0.0 -0.0 1.0
  outer loop
    vertex 703.9999999999998 300.0000000000003 250.0
    vertex 663.9999999999999 310.0 250.0
    vertex 673.9999999999999 270.0000000000001 250.0
  endloop
endfacet
facet normal -0.0 -0.0 1.0
  outer loop
    vertex 673.9999999999999 270.0000000000001 250.0
    vertex 663.9999999999999 310.0 250.0
    vertex 673.9999999999999 40.00000000000031 250.0
  endloop
endfacet
facet normal -0.0 -0.0 1.0
  outer loop
    vertex 703.9999999999998 300.0000000000003 250.0
    vertex 673.9999999999999 270.0000000000001 250.0
    vertex 703.9999999999998 270.0000000000001 250.0
  endloop
endfacet
facet normal -0.0 -0.0 1.0
  outer loop
    vertex 893.9999999999992 310.0 250.0
    vertex 703.9999999999998 300.0000000000003 250.0
    vertex 853.9999999999992 300.0000000000003 250.0
  endloop
endfacet
facet normal -0.0 -0.0 1.0
  outer loop
    vertex 893.9999999999992 310.0 250.0
    vertex 853.9999999999992 300.0000000000003 250.0
    vertex 883.9999999999993 270.0000000000001 250.0
  endloop
endfacet
facet normal -0.0 -0.0 1.0
  outer loop
    vertex 893.9999999999992 310.0 250.0
    vertex 883.9999999999993 270.0000000000001 250.0
    vertex 893.9999999999992 0.0 250.0
  endloop
endfacet
facet normal -0.0 -0.0 1.0
  outer loop
    vertex 703.9999999999998 40.00000000000031 250.0
    vertex 673.9999999999999 40.00000000000031 250.0
    vertex 703.9999999999998 10.000000000000107 250.0
  endloop
endfacet
facet normal -0.0 1.0 -0.0
  outer loop
    vertex 673.9999999999999 40.00000000000031 250.0
    vertex 703.9999999999998 40.00000000000031 160.0
    vertex 673.9999999999999 40.00000000000031 160.0
  endloop
endfacet
facet normal -0.0 1.0 -0.0
  outer loop
    vertex 703.9999999999998 40.00000000000031 160.0
    vertex 673.9999999999999 40.00000000000031 250.0
    vertex 703.9999999999998 40.00000000000031 250.0
  endloop
endfacet
facet normal -1.0 0.0 0.0
  outer loop
    vertex 663.9999999999999 2500.0 180.0
    vertex 663.9999999999999 2364.0 100.0
    vertex 663.9999999999999 2364.0 180.0
  endloop
endfacet
facet normal -1.0 0.0 0.0
  outer loop
    vertex 663.9999999999999 2364.0 100.0
    vertex 663.9999999999999 2500.0 180.0
    vertex 663.9999999999999 2500.0 100.0
  endloop
endfacet
facet normal -1.0 0.0 0.0
  outer loop
    vertex 663.9999999999999 2500.0 100.0
    vertex 663.9999999999999 2500.0 180.0
    vertex 663.9999999999999 2500.0 150.0
  endloop
endfacet
facet normal -1.0 0.0 -0.0
  outer loop
    vertex 682.0000000000001 2482.0 600.0
    vertex 682.0000000000001 2382.0 180.0
    vertex 682.0000000000001 2382.0 600.0
  endloop
endfacet
facet normal -1.0 0.0 -0.0
  outer loop
    vertex 682.0000000000001 2382.0 180.0
    vertex 682.0000000000001 2482.0 600.0
    vertex 682.0000000000001 2482.0 180.0
  endloop
endfacet
facet normal -0.0 -1.0 -0.0
  outer loop
    vertex 1682.0 2382.0 600.0
    vertex 682.0000000000001 2382.0 180.0
    vertex 1682.0 2382.0 180.0
  endloop
endfacet
facet normal -0.0 -1.0 -0.0
  outer loop
    vertex 682.0000000000001 2382.0 180.0
    vertex 1682.0 2382.0 600.0
    vertex 682.0000000000001 2382.0 600.0
  endloop
endfacet
facet normal -3.484128472646051e-16 -1.0 0.0
  outer loop
    vertex 1700.0 2364.0 150.0
    vertex 663.9999999999999 2364.0 100.0
    vertex 1700.0 2364.0 100.0
  endloop
endfacet
facet normal -3.484128472646051e-16 -1.0 0.0
  outer loop
    vertex 663.9999999999999 2364.0 100.0
    vertex 1700.0 2364.0 150.0
    vertex 663.9999999999999 2364.0 180.0
  endloop
endfacet
facet normal -3.484128472646051e-16 -1.0 0.0
  outer loop
    vertex 663.9999999999999 2364.0 180.0
    vertex 1700.0 2364.0 150.0
    vertex 1700.0 2364.0 180.0
  endloop
endfacet
facet normal -0.0 1.0 -0.0
  outer loop
    vertex 682.0000000000001 2482.0 600.0
    vertex 1682.0 2482.0 180.0
    vertex 682.0000000000001 2482.0 180.0
  endloop
endfacet
facet normal -0.0 1.0 -0.0
  outer loop
    vertex 1682.0 2482.0 180.0
    vertex 682.0000000000001 2482.0 600.0
    vertex 1682.0 2482.0 600.0
  endloop
endfacet
facet normal 1.0 0.0 0.0
  outer loop
    vertex 1682.0 2482.0 180.0
    vertex 1682.0 2382.0 600.0
    vertex 1682.0 2382.0 180.0
  endloop
endfacet
facet normal 1.0 0.0 0.0
  outer loop
    vertex 1682.0 2382.0 600.0
    vertex 1682.0 2482.0 180.0
    vertex 1682.0 2482.0 600.0
  endloop
endfacet
facet normal 1.0 -0.0 0.0
  outer loop
    vertex 1700.0 2500.0 150.0
    vertex 1700.0 2364.0 180.0
    vertex 1700.0 2364.0 150.0
  endloop
endfacet
facet normal 1.0 -0.0 0.0
  outer loop
    vertex 1700.0 2364.0 180.0
    vertex 1700.0 2500.0 150.0
    vertex 1700.0 2500.0 180.0
  endloop
endfacet
facet normal 0.0 1.0 0.0
  outer loop
    vertex 663.9999999999999 2500.0 180.0
    vertex 1700.0 2500.0 150.0
    vertex 663.9999999999999 2500.0 150.0
  endloop
endfacet
facet normal 0.0 1.0 0.0
  outer loop
    vertex 1700.0 2500.0 150.0
    vertex 663.9999999999999 2500.0 180.0
    vertex 1700.0 2500.0 180.0
  endloop
endfacet
facet normal 0.0 0.0 1.0
  outer loop
    vertex 663.9999999999999 2364.0 180.0
    vertex 682.0000000000001 2382.0 180.0
    vertex 663.9999999999999 2500.0 180.0
  endloop
endfacet
facet normal 0.0 0.0 1.0
  outer loop
    vertex 682.0000000000001 2382.0 180.0
    vertex 663.9999999999999 2364.0 180.0
    vertex 1700.0 2364.0 180.0
  endloop
endfacet
facet normal 0.0 0.0 1.0
  outer loop
    vertex 682.0000000000001 2382.0 180.0
    vertex 1700.0 2364.0 180.0
    vertex 1682.0 2382.0 180.0
  endloop
endfacet
facet normal 0.0 0.0 1.0
  outer loop
    vertex 1682.0 2382.0 180.0
    vertex 1700.0 2364.0 180.0
    vertex 1682.0 2482.0 180.0
  endloop
endfacet
facet normal 0.0 0.0 1.0
  outer loop
    vertex 663.9999999999999 2500.0 180.0
    vertex 682.0000000000001 2482.0 180.0
    vertex 1700.0 2500.0 180.0
  endloop
endfacet
facet normal 0.0 0.0 1.0
  outer loop
    vertex 682.0000000000001 2482.0 180.0
    vertex 663.9999999999999 2500.0 180.0
    vertex 682.0000000000001 2382.0 180.0
  endloop
endfacet
facet normal 0.0 0.0 1.0
  outer loop
    vertex 1700.0 2500.0 180.0
    vertex 682.0000000000001 2482.0 180.0
    vertex 1682.0 2482.0 180.0
  endloop
endfacet
facet normal 0.0 0.0 1.0
  outer loop
    vertex 1700.0 2500.0 180.0
    vertex 1682.0 2482.0 180.0
    vertex 1700.0 2364.0 180.0
  endloop
endfacet
facet normal -1.0 0.0 0.0
  outer loop
    vertex 1067.0 310.0 250.0
    vertex 1067.0 0.0 150.0
    vertex 1067.0 0.0 250.0
  endloop
endfacet
facet normal -1.0 0.0 0.0
  outer loop
    vertex 1067.0 0.0 150.0
    vertex 1067.0 310.0 250.0
    vertex 1067.0 0.0 100.0
  endloop
endfacet
facet normal -1.0 0.0 0.0
  outer loop
    vertex 1067.0 0.0 100.0
    vertex 1067.0 310.0 250.0
    vertex 1067.0 310.0 100.0
  endloop
endfacet
facet normal 0.0 -1.0 0.0
  outer loop
    vertex 1256.9999999999993 300.0000000000003 250.0
    vertex 1106.9999999999998 300.0000000000003 160.0
    vertex 1256.9999999999993 300.0000000000003 160.0
  endloop
endfacet
facet normal 0.0 -1.0 0.0
  outer loop
    vertex 1106.9999999999998 300.0000000000003 160.0
    vertex 1256.9999999999993 300.0000000000003 250.0
    vertex 1106.9999999999998 300.0000000000003 250.0
  endloop
endfacet
facet normal 0.0 1.0 0.0
  outer loop
    vertex 1067.0 310.0 250.0
    vertex 1296.999999999999 310.0 100.0
    vertex 1067.0 310.0 100.0
  endloop
endfacet
facet normal 0.0 1.0 0.0
  outer loop
    vertex 1296.999999999999 310.0 100.0
    vertex 1067.0 310.0 250.0
    vertex 1296.999999999999 310.0 250.0
  endloop
endfacet
facet normal 0.0 -1.0 0.0
  outer loop
    vertex 1106.9999999999998 270.0000000000001 250.0
    vertex 1077.0 270.0000000000001 160.0
    vertex 1106.9999999999998 270.0000000000001 160.0
  endloop
endfacet
facet normal 0.0 -1.0 0.0
  outer loop
    vertex 1077.0 270.0000000000001 160.0
    vertex 1106.9999999999998 270.0000000000001 250.0
    vertex 1077.0 270.0000000000001 250.0
  endloop
endfacet
facet normal -0.0 -0.0 1.0
  outer loop
    vertex 663.9999999999999 1628.0 180.0
    vertex 682.0000000000001 1646.0 180.0
    vertex 663.9999999999999 1763.9999999999998 180.0
  endloop
endfacet
facet normal -0.0 -0.0 1.0
  outer loop
    vertex 682.0000000000001 1646.0 180.0
    vertex 663.9999999999999 1628.0 180.0
    vertex 1700.0 1627.9999999999998 180.0
  endloop
endfacet
facet normal -0.0 -0.0 1.0
  outer loop
    vertex 682.0000000000001 1646.0 180.0
    vertex 1700.0 1627.9999999999998 180.0
    vertex 1682.0 1646.0 180.0
  endloop
endfacet
facet normal -0.0 -0.0 1.0
  outer loop
    vertex 1682.0 1646.0 180.0
    vertex 1700.0 1627.9999999999998 180.0
    vertex 1682.0 1746.0 180.0
  endloop
endfacet
facet normal -0.0 -0.0 1.0
  outer loop
    vertex 663.9999999999999 1763.9999999999998 180.0
    vertex 682.0000000000001 1746.0 180.0
    vertex 1700.0 1763.9999999999998 180.0
  endloop
endfacet
facet normal -0.0 -0.0 1.0
  outer loop
    vertex 682.0000000000001 1746.0 180.0
    vertex 663.9999999999999 1763.9999999999998 180.0
    vertex 682.0000000000001 1646.0 180.0
  endloop
endfacet
facet normal -0.0 -0.0 1.0
  outer loop
    vertex 1700.0 1763.9999999999998 180.0
    vertex 682.0000000000001 1746.0 180.0
    vertex 1682.0 1746.0 180.0
  endloop
endfacet
facet normal -0.0 -0.0 1.0
  outer loop
    vertex 1700.0 1763.9999999999998 180.0
    vertex 1682.0 1746.0 180.0
    vertex 1700.0 1627.9999999999998 180.0
  endloop
endfacet
facet normal -0.0 1.0 -0.0
  outer loop
    vertex 682.0000000000001 1746.0 600.0
    vertex 1682.0 1746.0 180.0
    vertex 682.0000000000001 1746.0 180.0
  endloop
endfacet
facet normal -0.0 1.0 -0.0
  outer loop
    vertex 1682.0 1746.0 180.0
    vertex 682.0000000000001 1746.0 600.0
    vertex 1682.0 1746.0 600.0
  endloop
endfacet
facet normal 1.0 -0.0 -0.0
  outer loop
    vertex 1682.0 1746.0 180.0
    vertex 1682.0 1646.0 600.0
    vertex 1682.0 1646.0 180.0
  endloop
endfacet
facet normal 1.0 -0.0 -0.0
  outer loop
    vertex 1682.0 1646.0 600.0
    vertex 1682.0 1746.0 180.0
    vertex 1682.0 1746.0 600.0
  endloop
endfacet
facet normal 1.0 -0.0 -0.0
  outer loop
    vertex 1700.0 1763.9999999999998 150.0
    vertex 1700.0 1627.9999999999998 180.0
    vertex 1700.0 1627.9999999999998 150.0
  endloop
endfacet
facet normal 1.0 -0.0 -0.0
  outer loop
    vertex 1700.0 1627.9999999999998 180.0
    vertex 1700.0 1763.9999999999998 150.0
    vertex 1700.0 1763.9999999999998 180.0
  endloop
endfacet
facet normal -0.0 -0.0 1.0
  outer loop
    vertex 1682.0 1646.0 600.0
    vertex 682.0000000000001 1746.0 600.0
    vertex 682.0000000000001 1646.0 600.0
  endloop
endfacet
facet normal -0.0 -0.0 1.0
  outer loop
    vertex 682.0000000000001 1746.0 600.0
    vertex 1682.0 1646.0 600.0
    vertex 1682.0 1746.0 600.0
  endloop
endfacet
facet normal 0.0 -1.0 0.0
  outer loop
    vertex 1682.0 1646.0 600.0
    vertex 682.0000000000001 1646.0 180.0
    vertex 1682.0 1646.0 180.0
  endloop
endfacet
facet normal 0.0 -1.0 0.0
  outer loop
    vertex 682.0000000000001 1646.0 180.0
    vertex 1682.0 1646.0 600.0
    vertex 682.0000000000001 1646.0 600.0
  endloop
endfacet
facet normal -3.4841284726460505e-16 -1.0 -2.018478040505566e-31
  outer loop
    vertex 1700.0 1627.9999999999998 150.0
    vertex 663.9999999999999 1628.0 100.0
    vertex 1700.0 1627.9999999999998 100.0
  endloop
endfacet
facet normal -3.4841284726460505e-16 -1.0 -2.018478040505566e-31
  outer loop
    vertex 663.9999999999999 1628.0 100.0
    vertex 1700.0 1627.9999999999998 150.0
    vertex 663.9999999999999 1628.0 180.0
  endloop
endfacet
facet normal -3.4841284726460505e-16 -1.0 -2.018478040505566e-31
  outer loop
    vertex 663.9999999999999 1628.0 180.0
    vertex 1700.0 1627.9999999999998 150.0
    vertex 1700.0 1627.9999999999998 180.0
  endloop
endfacet
facet normal 0.0 0.0 1.0
  outer loop
    vertex 1286.9999999999993 270.0000000000001 250.0
    vertex 1256.9999999999993 300.0000000000003 250.0
    vertex 1256.9999999999993 270.0000000000001 250.0
  endloop
endfacet
facet normal 0.0 0.0 1.0
  outer loop
    vertex 1067.0 0.0 250.0
    vertex 1077.0 40.00000000000031 250.0
    vertex 1067.0 310.0 250.0
  endloop
endfacet
facet normal 0.0 0.0 1.0
  outer loop
    vertex 1077.0 40.00000000000031 250.0
    vertex 1067.0 0.0 250.0
    vertex 1106.9999999999998 10.000000000000107 250.0
  endloop
endfacet
facet normal 0.0 0.0 1.0
  outer loop
    vertex 1106.9999999999998 10.000000000000107 250.0
    vertex 1067.0 0.0 250.0
    vertex 1296.999999999999 0.0 250.0
  endloop
endfacet
facet normal 0.0 0.0 1.0
  outer loop
    vertex 1106.9999999999998 10.000000000000107 250.0
    vertex 1296.999999999999 0.0 250.0
    vertex 1256.9999999999993 10.000000000000107 250.0
  endloop
endfacet
facet normal 0.0 0.0 1.0
  outer loop
    vertex 1256.9999999999993 10.000000000000107 250.0
    vertex 1296.999999999999 0.0 250.0
    vertex 1256.9999999999993 40.00000000000031 250.0
  endloop
endfacet
facet normal 0.0 0.0 1.0
  outer loop
    vertex 1256.9999999999993 40.00000000000031 250.0
    vertex 1296.999999999999 0.0 250.0
    vertex 1286.9999999999993 40.00000000000031 250.0
  endloop
endfacet
facet normal 0.0 0.0 1.0
  outer loop
    vertex 1286.9999999999993 40.00000000000031 250.0
    vertex 1296.999999999999 0.0 250.0
    vertex 1286.9999999999993 270.0000000000001 250.0
  endloop
endfacet
facet normal 0.0 0.0 1.0
  outer loop
    vertex 1067.0 310.0 250.0
    vertex 1106.9999999999998 300.0000000000003 250.0
    vertex 1296.999999999999 310.0 250.0
  endloop
endfacet
facet normal 0.0 0.0 1.0
  outer loop
    vertex 1106.9999999999998 300.0000000000003 250.0
    vertex 1067.0 310.0 250.0
    vertex 1077.0 270.0000000000001 250.0
  endloop
endfacet
facet normal 0.0 0.0 1.0
  outer loop
    vertex 1077.0 270.0000000000001 250.0
    vertex 1067.0 310.0 250.0
    vertex 1077.0 40.00000000000031 250.0
  endloop
endfacet
facet normal 0.0 0.0 1.0
  outer loop
    vertex 1106.9999999999998 300.0000000000003 250.0
    vertex 1077.0 270.0000000000001 250.0
    vertex 1106.9999999999998 270.0000000000001 250.0
  endloop
endfacet
facet normal 0.0 0.0 1.0
  outer loop
    vertex 1296.999999999999 310.0 250.0
    vertex 1106.9999999999998 300.0000000000003 250.0
    vertex 1256.9999999999993 300.0000000000003 250.0
  endloop
endfacet
facet normal 0.0 0.0 1.0
  outer loop
    vertex 1296.999999999999 310.0 250.0
    vertex 1256.9999999999993 300.0000000000003 250.0
    vertex 1286.9999999999993 270.0000000000001 250.0
  endloop
endfacet
facet normal 0.0 0.0 1.0
  outer loop
    vertex 1296.999999999999 310.0 250.0
    vertex 1286.9999999999993 270.0000000000001 250.0
    vertex 1296.999999999999 0.0 250.0
  endloop
endfacet
facet normal 0.0 0.0 1.0
  outer loop
    vertex 1106.9999999999998 40.00000000000031 250.0
    vertex 1077.0 40.00000000000031 250.0
    vertex 1106.9999999999998 10.000000000000107 250.0
  endloop
endfacet
facet normal -1.0 0.0 0.0
  outer loop
    vertex 682.0000000000001 1746.0 600.0
    vertex 682.0000000000001 1646.0 180.0
    vertex 682.0000000000001 1646.0 600.0
  endloop
endfacet
facet normal -1.0 0.0 0.0
  outer loop
    vertex 682.0000000000001 1646.0 180.0
    vertex 682.0000000000001 1746.0 600.0
    vertex 682.0000000000001 1746.0 180.0
  endloop
endfacet
facet normal 0.0 1.0 0.0
  outer loop
    vertex 1077.0 40.00000000000031 250.0
    vertex 1106.9999999999998 40.00000000000031 160.0
    vertex 1077.0 40.00000000000031 160.0
  endloop
endfacet
facet normal 0.0 1.0 0.0
  outer loop
    vertex 1106.9999999999998 40.00000000000031 160.0
    vertex 1077.0 40.00000000000031 250.0
    vertex 1106.9999999999998 40.00000000000031 250.0
  endloop
endfacet
facet normal 0.0 0.0 1.0
  outer loop
    vertex 1286.9999999999993 40.00000000000031 160.0
    vertex 1256.9999999999993 270.0000000000001 160.0
    vertex 1256.9999999999993 40.00000000000031 160.0
  endloop
endfacet
facet normal 0.0 0.0 1.0
  outer loop
    vertex 1256.9999999999993 270.0000000000001 160.0
    vertex 1286.9999999999993 40.00000000000031 160.0
    vertex 1286.9999999999993 270.0000000000001 160.0
  endloop
endfacet
facet normal 0.0 0.0 1.0
  outer loop
    vertex 1256.9999999999993 10.000000000000107 160.0
    vertex 1106.9999999999998 40.00000000000031 160.0
    vertex 1106.9999999999998 10.000000000000107 160.0
  endloop
endfacet
facet normal 0.0 0.0 1.0
  outer loop
    vertex 1106.9999999999998 40.00000000000031 160.0
    vertex 1256.9999999999993 10.000000000000107 160.0
    vertex 1106.9999999999998 270.0000000000001 160.0
  endloop
endfacet
facet normal 0.0 0.0 1.0
  outer loop
    vertex 1106.9999999999998 270.0000000000001 160.0
    vertex 1256.9999999999993 10.000000000000107 160.0
    vertex 1106.9999999999998 300.0000000000003 160.0
  endloop
endfacet
facet normal 0.0 0.0 1.0
  outer loop
    vertex 1106.9999999999998 300.0000000000003 160.0
    vertex 1256.9999999999993 10.000000000000107 160.0
    vertex 1256.9999999999993 300.0000000000003 160.0
  endloop
endfacet
facet normal 0.0 0.0 1.0
  outer loop
    vertex 1256.9999999999993 300.0000000000003 160.0
    vertex 1256.9999999999993 10.000000000000107 160.0
    vertex 1256.9999999999993 40.00000000000031 160.0
  endloop
endfacet
facet normal 0.0 0.0 1.0
  outer loop
    vertex 1256.9999999999993 300.0000000000003 160.0
    vertex 1256.9999999999993 40.00000000000031 160.0
    vertex 1256.9999999999993 270.0000000000001 160.0
  endloop
endfacet
facet normal 0.0 0.0 1.0
  outer loop
    vertex 1106.9999999999998 40.00000000000031 160.0
    vertex 1077.0 270.0000000000001 160.0
    vertex 1077.0 40.00000000000031 160.0
  endloop
endfacet
facet normal 0.0 0.0 1.0
  outer loop
    vertex 1077.0 270.0000000000001 160.0
    vertex 1106.9999999999998 40.00000000000031 160.0
    vertex 1106.9999999999998 270.0000000000001 160.0
  endloop
endfacet
facet normal -0.0 1.0 -0.0
  outer loop
    vertex 663.9999999999999 1763.9999999999998 180.0
    vertex 1700.0 1763.9999999999998 100.0
    vertex 663.9999999999999 1763.9999999999998 100.0
  endloop
endfacet
facet normal -0.0 1.0 -0.0
  outer loop
    vertex 1700.0 1763.9999999999998 100.0
    vertex 663.9999999999999 1763.9999999999998 180.0
    vertex 1700.0 1763.9999999999998 150.0
  endloop
endfacet
facet normal -0.0 1.0 -0.0
  outer loop
    vertex 1700.0 1763.9999999999998 150.0
    vertex 663.9999999999999 1763.9999999999998 180.0
    vertex 1700.0 1763.9999999999998 180.0
  endloop
endfacet
facet normal -1.0 0.0 0.0
  outer loop
    vertex 663.9999999999999 1763.9999999999998 180.0
    vertex 663.9999999999999 1628.0 100.0
    vertex 663.9999999999999 1628.0 180.0
  endloop
endfacet
facet normal -1.0 0.0 0.0
  outer loop
    vertex 663.9999999999999 1628.0 100.0
    vertex 663.9999999999999 1763.9999999999998 180.0
    vertex 663.9999999999999 1763.9999999999998 100.0
  endloop
endfacet
facet normal 1.0 0.0 0.0
  outer loop
    vertex 1077.0 270.0000000000001 160.0
    vertex 1077.0 40.00000000000031 250.0
    vertex 1077.0 40.00000000000031 160.0
  endloop
endfacet
facet normal 1.0 0.0 0.0
  outer loop
    vertex 1077.0 40.00000000000031 250.0
    vertex 1077.0 270.0000000000001 160.0
    vertex 1077.0 270.0000000000001 250.0
  endloop
endfacet
facet normal 1.0 -0.0 -0.0
  outer loop
    vertex 1296.999999999999 310.0 100.0
    vertex 1296.999999999999 0.0 150.0
    vertex 1296.999999999999 0.0 100.0
  endloop
endfacet
facet normal 1.0 -0.0 -0.0
  outer loop
    vertex 1296.999999999999 0.0 150.0
    vertex 1296.999999999999 310.0 100.0
    vertex 1296.999999999999 0.0 250.0
  endloop
endfacet
facet normal 1.0 -0.0 -0.0
  outer loop
    vertex 1296.999999999999 0.0 250.0
    vertex 1296.999999999999 310.0 100.0
    vertex 1296.999999999999 310.0 250.0
  endloop
endfacet
facet normal 0.0 1.0 0.0
  outer loop
    vertex 1106.9999999999998 10.000000000000107 250.0
    vertex 1256.9999999999993 10.000000000000107 160.0
    vertex 1106.9999999999998 10.000000000000107 160.0
  endloop
endfacet
facet normal 0.0 1.0 0.0
  outer loop
    vertex 1256.9999999999993 10.000000000000107 160.0
    vertex 1106.9999999999998 10.000000000000107 250.0
    vertex 1256.9999999999993 10.000000000000107 250.0
  endloop
endfacet
facet normal 0.0 1.0 0.0
  outer loop
    vertex 1256.9999999999993 40.00000000000031 250.0
    vertex 1286.9999999999993 40.00000000000031 160.0
    vertex 1256.9999999999993 40.00000000000031 160.0
  endloop
endfacet
facet normal 0.0 1.0 0.0
  outer loop
    vertex 1286.9999999999993 40.00000000000031 160.0
    vertex 1256.9999999999993 40.00000000000031 250.0
    vertex 1286.9999999999993 40.00000000000031 250.0
  endloop
endfacet
facet normal 1.0 0.0 0.0
  outer loop
    vertex 1106.9999999999998 40.00000000000031 160.0
    vertex 1106.9999999999998 10.000000000000107 250.0
    vertex 1106.9999999999998 10.000000000000107 160.0
  endloop
endfacet
facet normal 1.0 0.0 0.0
  outer loop
    vertex 1106.9999999999998 10.000000000000107 250.0
    vertex 1106.9999999999998 40.00000000000031 160.0
    vertex 1106.9999999999998 40.00000000000031 250.0
  endloop
endfacet
facet normal -0.0 1.0 -0.0
  outer loop
    vertex 893.9999999999992 0.0 150.0
    vertex 1067.0 0.0 100.0
    vertex 893.9999999999992 0.0 100.0
  endloop
endfacet
facet normal -0.0 1.0 -0.0
  outer loop
    vertex 1067.0 0.0 100.0
    vertex 893.9999999999992 0.0 150.0
    vertex 1067.0 0.0 150.0
  endloop
endfacet
facet normal 1.0 0.0 0.0
  outer loop
    vertex 1106.9999999999998 300.0000000000003 160.0
    vertex 1106.9999999999998 270.0000000000001 250.0
    vertex 1106.9999999999998 270.0000000000001 160.0
  endloop
endfacet
facet normal 1.0 0.0 0.0
  outer loop
    vertex 1106.9999999999998 270.0000000000001 250.0
    vertex 1106.9999999999998 300.0000000000003 160.0
    vertex 1106.9999999999998 300.0000000000003 250.0
  endloop
endfacet
facet normal -1.0 0.0 0.0
  outer loop
    vertex 1256.9999999999993 40.00000000000031 250.0
    vertex 1256.9999999999993 10.000000000000107 160.0
    vertex 1256.9999999999993 10.000000000000107 250.0
  endloop
endfacet
facet normal -1.0 0.0 0.0
  outer loop
    vertex 1256.9999999999993 10.000000000000107 160.0
    vertex 1256.9999999999993 40.00000000000031 250.0
    vertex 1256.9999999999993 40.00000000000031 160.0
  endloop
endfacet
facet normal 0.0 -1.0 0.0
  outer loop
    vertex 1296.999999999999 0.0 250.0
    vertex 1067.0 0.0 150.0
    vertex 1296.999999999999 0.0 150.0
  endloop
endfacet
facet normal 0.0 -1.0 0.0
  outer loop
    vertex 1067.0 0.0 150.0
    vertex 1296.999999999999 0.0 250.0
    vertex 1067.0 0.0 250.0
  endloop
endfacet
facet normal -1.0 0.0 0.0
  outer loop
    vertex 1286.9999999999993 270.0000000000001 250.0
    vertex 1286.9999999999993 40.00000000000031 160.0
    vertex 1286.9999999999993 40.00000000000031 250.0
  endloop
endfacet
facet normal -1.0 0.0 0.0
  outer loop
    vertex 1286.9999999999993 40.00000000000031 160.0
    vertex 1286.9999999999993 270.0000000000001 250.0
    vertex 1286.9999999999993 270.0000000000001 160.0
  endloop
endfacet
facet normal 0.0 -1.0 0.0
  outer loop
    vertex 1286.9999999999993 270.0000000000001 250.0
    vertex 1256.9999999999993 270.0000000000001 160.0
    vertex 1286.9999999999993 270.0000000000001 160.0
  endloop
endfacet
facet normal 0.0 -1.0 0.0
  outer loop
    vertex 1256.9999999999993 270.0000000000001 160.0
    vertex 1286.9999999999993 270.0000000000001 250.0
    vertex 1256.9999999999993 270.0000000000001 250.0
  endloop
endfacet
facet normal -1.0 0.0 0.0
  outer loop
    vertex 1256.9999999999993 300.0000000000003 250.0
    vertex 1256.9999999999993 270.0000000000001 160.0
    vertex 1256.9999999999993 270.0000000000001 250.0
  endloop
endfacet
facet normal -1.0 0.0 0.0
  outer loop
    vertex 1256.9999999999993 270.0000000000001 160.0
    vertex 1256.9999999999993 300.0000000000003 250.0
    vertex 1256.9999999999993 300.0000000000003 160.0
  endloop
endfacet
facet normal -1.0 0.0 0.0
  outer loop
    vertex 1700.0 1627.9999999999998 150.0
    vertex 1700.0 1027.9999999999998 100.0
    vertex 1700.0 1027.9999999999998 150.0
  endloop
endfacet
facet normal -1.0 0.0 0.0
  outer loop
    vertex 1700.0 1027.9999999999998 100.0
    vertex 1700.0 1627.9999999999998 150.0
    vertex 1700.0 1627.9999999999998 100.0
  endloop
endfacet
facet normal 0.0 1.0 0.0
  outer loop
    vertex 682.0000000000001 1009.9999999999999 600.0
    vertex 1682.0 1009.9999999999999 180.0
    vertex 682.0000000000001 1009.9999999999999 180.0
  endloop
endfacet
facet normal 0.0 1.0 0.0
  outer loop
    vertex 1682.0 1009.9999999999999 180.0
    vertex 682.0000000000001 1009.9999999999999 600.0
    vertex 1682.0 1009.9999999999999 600.0
  endloop
endfacet
facet normal 1.0 0.0 0.0
  outer loop
    vertex 1682.0 1009.9999999999999 180.0
    vertex 1682.0 909.9999999999999 600.0
    vertex 1682.0 909.9999999999999 180.0
  endloop
endfacet
facet normal 1.0 0.0 0.0
  outer loop
    vertex 1682.0 909.9999999999999 600.0
    vertex 1682.0 1009.9999999999999 180.0
    vertex 1682.0 1009.9999999999999 600.0
  endloop
endfacet
facet normal 0.0 0.0 1.0
  outer loop
    vertex 663.9999999999999 892.0 180.0
    vertex 682.0000000000001 909.9999999999999 180.0
    vertex 663.9999999999999 1027.9999999999998 180.0
  endloop
endfacet
facet normal 0.0 0.0 1.0
  outer loop
    vertex 682.0000000000001 909.9999999999999 180.0
    vertex 663.9999999999999 892.0 180.0
    vertex 1700.0 891.9999999999997 180.0
  endloop
endfacet
facet normal 0.0 0.0 1.0
  outer loop
    vertex 682.0000000000001 909.9999999999999 180.0
    vertex 1700.0 891.9999999999997 180.0
    vertex 1682.0 909.9999999999999 180.0
  endloop
endfacet
facet normal 0.0 0.0 1.0
  outer loop
    vertex 1682.0 909.9999999999999 180.0
    vertex 1700.0 891.9999999999997 180.0
    vertex 1682.0 1009.9999999999999 180.0
  endloop
endfacet
facet normal 0.0 0.0 1.0
  outer loop
    vertex 663.9999999999999 1027.9999999999998 180.0
    vertex 682.0000000000001 1009.9999999999999 180.0
    vertex 1700.0 1027.9999999999998 180.0
  endloop
endfacet
facet normal 0.0 0.0 1.0
  outer loop
    vertex 682.0000000000001 1009.9999999999999 180.0
    vertex 663.9999999999999 1027.9999999999998 180.0
    vertex 682.0000000000001 909.9999999999999 180.0
  endloop
endfacet
facet normal 0.0 0.0 1.0
  outer loop
    vertex 1700.0 1027.9999999999998 180.0
    vertex 682.0000000000001 1009.9999999999999 180.0
    vertex 1682.0 1009.9999999999999 180.0
  endloop
endfacet
facet normal 0.0 0.0 1.0
  outer loop
    vertex 1700.0 1027.9999999999998 180.0
    vertex 1682.0 1009.9999999999999 180.0
    vertex 1700.0 891.9999999999997 180.0
  endloop
endfacet
facet normal 0.0 -1.0 0.0
  outer loop
    vertex 1682.0 909.9999999999999 600.0
    vertex 682.0000000000001 909.9999999999999 180.0
    vertex 1682.0 909.9999999999999 180.0
  endloop
endfacet
facet normal 0.0 -1.0 0.0
  outer loop
    vertex 682.0000000000001 909.9999999999999 180.0
    vertex 1682.0 909.9999999999999 600.0
    vertex 682.0000000000001 909.9999999999999 600.0
  endloop
endfacet
facet normal -0.0 1.0 -0.0
  outer loop
    vertex 663.9999999999999 1027.9999999999998 180.0
    vertex 1700.0 1027.9999999999998 100.0
    vertex 663.9999999999999 1027.9999999999998 100.0
  endloop
endfacet
facet normal -0.0 1.0 -0.0
  outer loop
    vertex 1700.0 1027.9999999999998 100.0
    vertex 663.9999999999999 1027.9999999999998 180.0
    vertex 1700.0 1027.9999999999998 150.0
  endloop
endfacet
facet normal -0.0 1.0 -0.0
  outer loop
    vertex 1700.0 1027.9999999999998 150.0
    vertex 663.9999999999999 1027.9999999999998 180.0
    vertex 1700.0 1027.9999999999998 180.0
  endloop
endfacet
facet normal -1.0 0.0 0.0
  outer loop
    vertex 682.0000000000001 1009.9999999999999 600.0
    vertex 682.0000000000001 909.9999999999999 180.0
    vertex 682.0000000000001 909.9999999999999 600.0
  endloop
endfacet
facet normal -1.0 0.0 0.0
  outer loop
    vertex 682.0000000000001 909.9999999999999 180.0
    vertex 682.0000000000001 1009.9999999999999 600.0
    vertex 682.0000000000001 1009.9999999999999 180.0
  endloop
endfacet
facet normal 0.0 0.0 1.0
  outer loop
    vertex 1682.0 909.9999999999999 600.0
    vertex 682.0000000000001 1009.9999999999999 600.0
    vertex 682.0000000000001 909.9999999999999 600.0
  endloop
endfacet
facet normal 0.0 0.0 1.0
  outer loop
    vertex 682.0000000000001 1009.9999999999999 600.0
    vertex 1682.0 909.9999999999999 600.0
    vertex 1682.0 1009.9999999999999 600.0
  endloop
endfacet
facet normal -1.0 0.0 0.0
  outer loop
    vertex 663.9999999999999 1027.9999999999998 180.0
    vertex 663.9999999999999 892.0 100.0
    vertex 663.9999999999999 892.0 180.0
  endloop
endfacet
facet normal -1.0 0.0 0.0
  outer loop
    vertex 663.9999999999999 892.0 100.0
    vertex 663.9999999999999 1027.9999999999998 180.0
    vertex 663.9999999999999 1027.9999999999998 100.0
  endloop
endfacet
facet normal 1.0 -0.0 -0.0
  outer loop
    vertex 1700.0 1027.9999999999998 150.0
    vertex 1700.0 891.9999999999997 180.0
    vertex 1700.0 891.9999999999997 150.0
  endloop
endfacet
facet normal 1.0 -0.0 -0.0
  outer loop
    vertex 1700.0 891.9999999999997 180.0
    vertex 1700.0 1027.9999999999998 150.0
    vertex 1700.0 1027.9999999999998 180.0
  endloop
endfacet
facet normal -1.0 0.0 0.0
  outer loop
    vertex 1700.0 891.9999999999997 150.0
    vertex 1700.0 310.0 100.0
    vertex 1700.0 310.0 150.0
  endloop
endfacet
facet normal -1.0 0.0 0.0
  outer loop
    vertex 1700.0 310.0 100.0
    vertex 1700.0 891.9999999999997 150.0
    vertex 1700.0 891.9999999999997 100.0
  endloop
endfacet
facet normal -3.4841284726460505e-16 -1.0 -2.018478040505566e-31
  outer loop
    vertex 1700.0 891.9999999999997 150.0
    vertex 663.9999999999999 892.0 100.0
    vertex 1700.0 891.9999999999997 100.0
  endloop
endfacet
facet normal -3.4841284726460505e-16 -1.0 -2.018478040505566e-31
  outer loop
    vertex 663.9999999999999 892.0 100.0
    vertex 1700.0 891.9999999999997 150.0
    vertex 663.9999999999999 892.0 180.0
  endloop
endfacet
facet normal -3.4841284726460505e-16 -1.0 -2.018478040505566e-31
  outer loop
    vertex 663.9999999999999 892.0 180.0
    vertex 1700.0 891.9999999999997 150.0
    vertex 1700.0 891.9999999999997 180.0
  endloop
endfacet
facet normal -0.0 -0.0 1.0
  outer loop
    vertex 1690.0 40.00000000000031 160.0
    vertex 1660.0 270.0000000000001 160.0
    vertex 1660.0 40.00000000000031 160.0
  endloop
endfacet
facet normal -0.0 -0.0 1.0
  outer loop
    vertex 1660.0 270.0000000000001 160.0
    vertex 1690.0 40.00000000000031 160.0
    vertex 1690.0 270.0000000000001 160.0
  endloop
endfacet
facet normal -0.0 -0.0 1.0
  outer loop
    vertex 1660.0 10.000000000000107 160.0
    vertex 1509.9999999999998 40.00000000000031 160.0
    vertex 1509.9999999999998 10.000000000000107 160.0
  endloop
endfacet
facet normal -0.0 -0.0 1.0
  outer loop
    vertex 1509.9999999999998 40.00000000000031 160.0
    vertex 1660.0 10.000000000000107 160.0
    vertex 1509.9999999999998 270.0000000000001 160.0
  endloop
endfacet
facet normal -0.0 -0.0 1.0
  outer loop
    vertex 1509.9999999999998 270.0000000000001 160.0
    vertex 1660.0 10.000000000000107 160.0
    vertex 1509.9999999999998 300.0000000000003 160.0
  endloop
endfacet
facet normal -0.0 -0.0 1.0
  outer loop
    vertex 1509.9999999999998 300.0000000000003 160.0
    vertex 1660.0 10.000000000000107 160.0
    vertex 1660.0 300.0000000000003 160.0
  endloop
endfacet
facet normal -0.0 -0.0 1.0
  outer loop
    vertex 1660.0 300.0000000000003 160.0
    vertex 1660.0 10.000000000000107 160.0
    vertex 1660.0 40.00000000000031 160.0
  endloop
endfacet
facet normal -0.0 -0.0 1.0
  outer loop
    vertex 1660.0 300.0000000000003 160.0
    vertex 1660.0 40.00000000000031 160.0
    vertex 1660.0 270.0000000000001 160.0
  endloop
endfacet
facet normal -0.0 -0.0 1.0
  outer loop
    vertex 1509.9999999999998 40.00000000000031 160.0
    vertex 1480.0 270.0000000000001 160.0
    vertex 1480.0 40.00000000000031 160.0
  endloop
endfacet
facet normal -0.0 -0.0 1.0
  outer loop
    vertex 1480.0 270.0000000000001 160.0
    vertex 1509.9999999999998 40.00000000000031 160.0
    vertex 1509.9999999999998 270.0000000000001 160.0
  endloop
endfacet
facet normal 1.0 -0.0 -0.0
  outer loop
    vertex 1509.9999999999998 300.0000000000003 160.0
    vertex 1509.9999999999998 270.0000000000001 250.0
    vertex 1509.9999999999998 270.0000000000001 160.0
  endloop
endfacet
facet normal 1.0 -0.0 -0.0
  outer loop
    vertex 1509.9999999999998 270.0000000000001 250.0
    vertex 1509.9999999999998 300.0000000000003 160.0
    vertex 1509.9999999999998 300.0000000000003 250.0
  endloop
endfacet
facet normal 0.0 -1.0 0.0
  outer loop
    vertex 1690.0 270.0000000000001 250.0
    vertex 1660.0 270.0000000000001 160.0
    vertex 1690.0 270.0000000000001 160.0
  endloop
endfacet
facet normal 0.0 -1.0 0.0
  outer loop
    vertex 1660.0 270.0000000000001 160.0
    vertex 1690.0 270.0000000000001 250.0
    vertex 1660.0 270.0000000000001 250.0
  endloop
endfacet
facet normal -1.0 0.0 0.0
  outer loop
    vertex 1660.0 40.00000000000031 250.0
    vertex 1660.0 10.000000000000107 160.0
    vertex 1660.0 10.000000000000107 250.0
  endloop
endfacet
facet normal -1.0 0.0 0.0
  outer loop
    vertex 1660.0 10.000000000000107 160.0
    vertex 1660.0 40.00000000000031 250.0
    vertex 1660.0 40.00000000000031 160.0
  endloop
endfacet
facet normal -0.0 1.0 -0.0
  outer loop
    vertex 1509.9999999999998 10.000000000000107 250.0
    vertex 1660.0 10.000000000000107 160.0
    vertex 1509.9999999999998 10.000000000000107 160.0
  endloop
endfacet
facet normal -0.0 1.0 -0.0
  outer loop
    vertex 1660.0 10.000000000000107 160.0
    vertex 1509.9999999999998 10.000000000000107 250.0
    vertex 1660.0 10.000000000000107 250.0
  endloop
endfacet
facet normal -1.0 0.0 0.0
  outer loop
    vertex 1690.0 270.0000000000001 250.0
    vertex 1690.0 40.00000000000031 160.0
    vertex 1690.0 40.00000000000031 250.0
  endloop
endfacet
facet normal -1.0 0.0 0.0
  outer loop
    vertex 1690.0 40.00000000000031 160.0
    vertex 1690.0 270.0000000000001 250.0
    vertex 1690.0 270.0000000000001 160.0
  endloop
endfacet
facet normal -0.0 1.0 -0.0
  outer loop
    vertex 1660.0 40.00000000000031 250.0
    vertex 1690.0 40.00000000000031 160.0
    vertex 1660.0 40.00000000000031 160.0
  endloop
endfacet
facet normal -0.0 1.0 -0.0
  outer loop
    vertex 1690.0 40.00000000000031 160.0
    vertex 1660.0 40.00000000000031 250.0
    vertex 1690.0 40.00000000000031 250.0
  endloop
endfacet
facet normal 1.0 -0.0 -0.0
  outer loop
    vertex 1509.9999999999998 40.00000000000031 160.0
    vertex 1509.9999999999998 10.000000000000107 250.0
    vertex 1509.9999999999998 10.000000000000107 160.0
  endloop
endfacet
facet normal 1.0 -0.0 -0.0
  outer loop
    vertex 1509.9999999999998 10.000000000000107 250.0
    vertex 1509.9999999999998 40.00000000000031 160.0
    vertex 1509.9999999999998 40.00000000000031 250.0
  endloop
endfacet
facet normal -1.0 0.0 0.0
  outer loop
    vertex 1660.0 300.0000000000003 250.0
    vertex 1660.0 270.0000000000001 160.0
    vertex 1660.0 270.0000000000001 250.0
  endloop
endfacet
facet normal -1.0 0.0 0.0
  outer loop
    vertex 1660.0 270.0000000000001 160.0
    vertex 1660.0 300.0000000000003 250.0
    vertex 1660.0 300.0000000000003 160.0
  endloop
endfacet
facet normal 0.0 -1.0 0.0
  outer loop
    vertex 1700.0 0.0 250.0
    vertex 1470.0 0.0 150.0
    vertex 1700.0 0.0 150.0
  endloop
endfacet
facet normal 0.0 -1.0 0.0
  outer loop
    vertex 1470.0 0.0 150.0
    vertex 1700.0 0.0 250.0
    vertex 1470.0 0.0 250.0
  endloop
endfacet
facet normal 1.0 -0.0 -0.0
  outer loop
    vertex 1480.0 270.0000000000001 160.0
    vertex 1480.0 40.00000000000031 250.0
    vertex 1480.0 40.00000000000031 160.0
  endloop
endfacet
facet normal 1.0 -0.0 -0.0
  outer loop
    vertex 1480.0 40.00000000000031 250.0
    vertex 1480.0 270.0000000000001 160.0
    vertex 1480.0 270.0000000000001 250.0
  endloop
endfacet
facet normal 0.0 -1.0 0.0
  outer loop
    vertex 1660.0 300.0000000000003 250.0
    vertex 1509.9999999999998 300.0000000000003 160.0
    vertex 1660.0 300.0000000000003 160.0
  endloop
endfacet
facet normal 0.0 -1.0 0.0
  outer loop
    vertex 1509.9999999999998 300.0000000000003 160.0
    vertex 1660.0 300.0000000000003 250.0
    vertex 1509.9999999999998 300.0000000000003 250.0
  endloop
endfacet
facet normal 1.0 -0.0 -0.0
  outer loop
    vertex 1700.0 310.0 150.0
    vertex 1700.0 0.0 250.0
    vertex 1700.0 0.0 150.0
  endloop
endfacet
facet normal 1.0 -0.0 -0.0
  outer loop
    vertex 1700.0 0.0 250.0
    vertex 1700.0 310.0 150.0
    vertex 1700.0 310.0 250.0
  endloop
endfacet
facet normal -1.0 0.0 0.0
  outer loop
    vertex 1470.0 310.0 250.0
    vertex 1470.0 0.0 150.0
    vertex 1470.0 0.0 250.0
  endloop
endfacet
facet normal -1.0 0.0 0.0
  outer loop
    vertex 1470.0 0.0 150.0
    vertex 1470.0 310.0 250.0
    vertex 1470.0 0.0 100.0
  endloop
endfacet
facet normal -1.0 0.0 0.0
  outer loop
    vertex 1470.0 0.0 100.0
    vertex 1470.0 310.0 250.0
    vertex 1470.0 310.0 100.0
  endloop
endfacet
facet normal -0.0 1.0 -0.0
  outer loop
    vertex 1470.0 310.0 250.0
    vertex 1700.0 310.0 100.0
    vertex 1470.0 310.0 100.0
  endloop
endfacet
facet normal -0.0 1.0 -0.0
  outer loop
    vertex 1700.0 310.0 100.0
    vertex 1470.0 310.0 250.0
    vertex 1700.0 310.0 150.0
  endloop
endfacet
facet normal -0.0 1.0 -0.0
  outer loop
    vertex 1700.0 310.0 150.0
    vertex 1470.0 310.0 250.0
    vertex 1700.0 310.0 250.0
  endloop
endfacet
facet normal 0.0 -1.0 0.0
  outer loop
    vertex 1509.9999999999998 270.0000000000001 250.0
    vertex 1480.0 270.0000000000001 160.0
    vertex 1509.9999999999998 270.0000000000001 160.0
  endloop
endfacet
facet normal 0.0 -1.0 0.0
  outer loop
    vertex 1480.0 270.0000000000001 160.0
    vertex 1509.9999999999998 270.0000000000001 250.0
    vertex 1480.0 270.0000000000001 250.0
  endloop
endfacet
facet normal -0.0 -0.0 1.0
  outer loop
    vertex 1690.0 270.0000000000001 250.0
    vertex 1660.0 300.0000000000003 250.0
    vertex 1660.0 270.0000000000001 250.0
  endloop
endfacet
facet normal -0.0 -0.0 1.0
  outer loop
    vertex 1470.0 0.0 250.0
    vertex 1480.0 40.00000000000031 250.0
    vertex 1470.0 310.0 250.0
  endloop
endfacet
facet normal -0.0 -0.0 1.0
  outer loop
    vertex 1480.0 40.00000000000031 250.0
    vertex 1470.0 0.0 250.0
    vertex 1509.9999999999998 10.000000000000107 250.0
  endloop
endfacet
facet normal -0.0 -0.0 1.0
  outer loop
    vertex 1509.9999999999998 10.000000000000107 250.0
    vertex 1470.0 0.0 250.0
    vertex 1700.0 0.0 250.0
  endloop
endfacet
facet normal -0.0 -0.0 1.0
  outer loop
    vertex 1509.9999999999998 10.000000000000107 250.0
    vertex 1700.0 0.0 250.0
    vertex 1660.0 10.000000000000107 250.0
  endloop
endfacet
facet normal -0.0 -0.0 1.0
  outer loop
    vertex 1660.0 10.000000000000107 250.0
    vertex 1700.0 0.0 250.0
    vertex 1660.0 40.00000000000031 250.0
  endloop
endfacet
facet normal -0.0 -0.0 1.0
  outer loop
    vertex 1660.0 40.00000000000031 250.0
    vertex 1700.0 0.0 250.0
    vertex 1690.0 40.00000000000031 250.0
  endloop
endfacet
facet normal -0.0 -0.0 1.0
  outer loop
    vertex 1690.0 40.00000000000031 250.0
    vertex 1700.0 0.0 250.0
    vertex 1690.0 270.0000000000001 250.0
  endloop
endfacet
facet normal -0.0 -0.0 1.0
  outer loop
    vertex 1470.0 310.0 250.0
    vertex 1509.9999999999998 300.0000000000003 250.0
    vertex 1700.0 310.0 250.0
  endloop
endfacet
facet normal -0.0 -0.0 1.0
  outer loop
    vertex 1509.9999999999998 300.0000000000003 250.0
    vertex 1470.0 310.0 250.0
    vertex 1480.0 270.0000000000001 250.0
  endloop
endfacet
facet normal -0.0 -0.0 1.0
  outer loop
    vertex 1480.0 270.0000000000001 250.0
    vertex 1470.0 310.0 250.0
    vertex 1480.0 40.00000000000031 250.0
  endloop
endfacet
facet normal -0.0 -0.0 1.0
  outer loop
    vertex 1509.9999999999998 300.0000000000003 250.0
    vertex 1480.0 270.0000000000001 250.0
    vertex 1509.9999999999998 270.0000000000001 250.0
  endloop
endfacet
facet normal -0.0 -0.0 1.0
  outer loop
    vertex 1700.0 310.0 250.0
    vertex 1509.9999999999998 300.0000000000003 250.0
    vertex 1660.0 300.0000000000003 250.0
  endloop
endfacet
facet normal -0.0 -0.0 1.0
  outer loop
    vertex 1700.0 310.0 250.0
    vertex 1660.0 300.0000000000003 250.0
    vertex 1690.0 270.0000000000001 250.0
  endloop
endfacet
facet normal -0.0 -0.0 1.0
  outer loop
    vertex 1700.0 310.0 250.0
    vertex 1690.0 270.0000000000001 250.0
    vertex 1700.0 0.0 250.0
  endloop
endfacet
facet normal -0.0 -0.0 1.0
  outer loop
    vertex 1509.9999999999998 40.00000000000031 250.0
    vertex 1480.0 40.00000000000031 250.0
    vertex 1509.9999999999998 10.000000000000107 250.0
  endloop
endfacet
facet normal -0.0 1.0 -0.0
  outer loop
    vertex 1480.0 40.00000000000031 250.0
    vertex 1509.9999999999998 40.00000000000031 160.0
    vertex 1480.0 40.00000000000031 160.0
  endloop
endfacet
facet normal -0.0 1.0 -0.0
  outer loop
    vertex 1509.9999999999998 40.00000000000031 160.0
    vertex 1480.0 40.00000000000031 250.0
    vertex 1509.9999999999998 40.00000000000031 250.0
  endloop
endfacet
facet normal -0.0 1.0 -0.0
  outer loop
    vertex 1296.999999999999 0.0 150.0
    vertex 1470.0 0.0 100.0
    vertex 1296.999999999999 0.0 100.0
  endloop
endfacet
facet normal -0.0 1.0 -0.0
  outer loop
    vertex 1470.0 0.0 100.0
    vertex 1296.999999999999 0.0 150.0
    vertex 1470.0 0.0 150.0
  endloop
endfacet
facet normal -0.0 -0.0 1.0
  outer loop
    vertex 883.9999999999993 40.00000000000031 160.0
    vertex 853.9999999999992 270.0000000000001 160.0
    vertex 853.9999999999992 40.00000000000031 160.0
  endloop
endfacet
facet normal -0.0 -0.0 1.0
  outer loop
    vertex 853.9999999999992 270.0000000000001 160.0
    vertex 883.9999999999993 40.00000000000031 160.0
    vertex 883.9999999999993 270.0000000000001 160.0
  endloop
endfacet
facet normal -0.0 -0.0 1.0
  outer loop
    vertex 853.9999999999992 10.000000000000107 160.0
    vertex 703.9999999999998 40.00000000000031 160.0
    vertex 703.9999999999998 10.000000000000107 160.0
  endloop
endfacet
facet normal -0.0 -0.0 1.0
  outer loop
    vertex 703.9999999999998 40.00000000000031 160.0
    vertex 853.9999999999992 10.000000000000107 160.0
    vertex 703.9999999999998 270.0000000000001 160.0
  endloop
endfacet
facet normal -0.0 -0.0 1.0
  outer loop
    vertex 703.9999999999998 270.0000000000001 160.0
    vertex 853.9999999999992 10.000000000000107 160.0
    vertex 703.9999999999998 300.0000000000003 160.0
  endloop
endfacet
facet normal -0.0 -0.0 1.0
  outer loop
    vertex 703.9999999999998 300.0000000000003 160.0
    vertex 853.9999999999992 10.000000000000107 160.0
    vertex 853.9999999999992 300.0000000000003 160.0
  endloop
endfacet
facet normal -0.0 -0.0 1.0
  outer loop
    vertex 853.9999999999992 300.0000000000003 160.0
    vertex 853.9999999999992 10.000000000000107 160.0
    vertex 853.9999999999992 40.00000000000031 160.0
  endloop
endfacet
facet normal -0.0 -0.0 1.0
  outer loop
    vertex 853.9999999999992 300.0000000000003 160.0
    vertex 853.9999999999992 40.00000000000031 160.0
    vertex 853.9999999999992 270.0000000000001 160.0
  endloop
endfacet
facet normal -0.0 -0.0 1.0
  outer loop
    vertex 703.9999999999998 40.00000000000031 160.0
    vertex 673.9999999999999 270.0000000000001 160.0
    vertex 673.9999999999999 40.00000000000031 160.0
  endloop
endfacet
facet normal -0.0 -0.0 1.0
  outer loop
    vertex 673.9999999999999 270.0000000000001 160.0
    vertex 703.9999999999998 40.00000000000031 160.0
    vertex 703.9999999999998 270.0000000000001 160.0
  endloop
endfacet
facet normal 1.0 -0.0 -0.0
  outer loop
    vertex 703.9999999999998 300.0000000000003 160.0
    vertex 703.9999999999998 270.0000000000001 250.0
    vertex 703.9999999999998 270.0000000000001 160.0
  endloop
endfacet
facet normal 1.0 -0.0 -0.0
  outer loop
    vertex 703.9999999999998 270.0000000000001 250.0
    vertex 703.9999999999998 300.0000000000003 160.0
    vertex 703.9999999999998 300.0000000000003 250.0
  endloop
endfacet
facet normal -0.0 1.0 -0.0
  outer loop
    vertex 703.9999999999998 10.000000000000107 250.0
    vertex 853.9999999999992 10.000000000000107 160.0
    vertex 703.9999999999998 10.000000000000107 160.0
  endloop
endfacet
facet normal -0.0 1.0 -0.0
  outer loop
    vertex 853.9999999999992 10.000000000000107 160.0
    vertex 703.9999999999998 10.000000000000107 250.0
    vertex 853.9999999999992 10.000000000000107 250.0
  endloop
endfacet
facet normal 0.0 -1.0 0.0
  outer loop
    vertex 893.9999999999992 0.0 250.0
    vertex 663.9999999999999 0.0 150.0
    vertex 893.9999999999992 0.0 150.0
  endloop
endfacet
facet normal 0.0 -1.0 0.0
  outer loop
    vertex 663.9999999999999 0.0 150.0
    vertex 893.9999999999992 0.0 250.0
    vertex 663.9999999999999 0.0 250.0
  endloop
endfacet
facet normal 0.0 -1.0 0.0
  outer loop
    vertex 883.9999999999993 270.0000000000001 250.0
    vertex 853.9999999999992 270.0000000000001 160.0
    vertex 883.9999999999993 270.0000000000001 160.0
  endloop
endfacet
facet normal 0.0 -1.0 0.0
  outer loop
    vertex 853.9999999999992 270.0000000000001 160.0
    vertex 883.9999999999993 270.0000000000001 250.0
    vertex 853.9999999999992 270.0000000000001 250.0
  endloop
endfacet
facet normal -1.0 0.0 0.0
  outer loop
    vertex 853.9999999999992 40.00000000000031 250.0
    vertex 853.9999999999992 10.000000000000107 160.0
    vertex 853.9999999999992 10.000000000000107 250.0
  endloop
endfacet
facet normal -1.0 0.0 0.0
  outer loop
    vertex 853.9999999999992 10.000000000000107 160.0
    vertex 853.9999999999992 40.00000000000031 250.0
    vertex 853.9999999999992 40.00000000000031 160.0
  endloop
endfacet
facet normal -1.0 0.0 0.0
  outer loop
    vertex 883.9999999999993 270.0000000000001 250.0
    vertex 883.9999999999993 40.00000000000031 160.0
    vertex 883.9999999999993 40.00000000000031 250.0
  endloop
endfacet
facet normal -1.0 0.0 0.0
  outer loop
    vertex 883.9999999999993 40.00000000000031 160.0
    vertex 883.9999999999993 270.0000000000001 250.0
    vertex 883.9999999999993 270.0000000000001 160.0
  endloop
endfacet
facet normal -0.0 1.0 -0.0
  outer loop
    vertex 853.9999999999992 40.00000000000031 250.0
    vertex 883.9999999999993 40.00000000000031 160.0
    vertex 853.9999999999992 40.00000000000031 160.0
  endloop
endfacet
facet normal -0.0 1.0 -0.0
  outer loop
    vertex 883.9999999999993 40.00000000000031 160.0
    vertex 853.9999999999992 40.00000000000031 250.0
    vertex 883.9999999999993 40.00000000000031 250.0
  endloop
endfacet
facet normal -1.0 0.0 0.0
  outer loop
    vertex 853.9999999999992 300.0000000000003 250.0
    vertex 853.9999999999992 270.0000000000001 160.0
    vertex 853.9999999999992 270.0000000000001 250.0
  endloop
endfacet
facet normal -1.0 0.0 0.0
  outer loop
    vertex 853.9999999999992 270.0000000000001 160.0
    vertex 853.9999999999992 300.0000000000003 250.0
    vertex 853.9999999999992 300.0000000000003 160.0
  endloop
endfacet
facet normal 1.0 -0.0 -0.0
  outer loop
    vertex 703.9999999999998 40.00000000000031 160.0
    vertex 703.9999999999998 10.000000000000107 250.0
    vertex 703.9999999999998 10.000000000000107 160.0
  endloop
endfacet
facet normal 1.0 -0.0 -0.0
  outer loop
    vertex 703.9999999999998 10.000000000000107 250.0
    vertex 703.9999999999998 40.00000000000031 160.0
    vertex 703.9999999999998 40.00000000000031 250.0
  endloop
endfacet
endsolid Untitled-5f4cc5c4
